<svg width="423" height="390" viewBox="0 0 423 390" fill="none" xmlns="http://www.w3.org/2000/svg">
<g filter="url(#filter0_d_601_16)">
<path d="M38.5 49L8 77.5H38.5V49Z" fill="url(#paint0_linear_601_16)"/>
<path d="M50.5 144.5V42H80L145.5 113.5L115 144.5H50.5Z" fill="url(#paint1_linear_601_16)"/>
<path d="M256.5 11.5L131 144.5H256.5V11.5Z" fill="url(#paint2_linear_601_16)"/>
<path d="M405 4H269.5V135.5L405 4Z" fill="url(#paint3_linear_601_16)"/>
<path d="M400.5 27L356.5 69L422.5 34L400.5 27Z" fill="url(#paint4_linear_601_16)"/>
<path d="M60 155H256.5L199 302.5L60 155Z" fill="url(#paint5_linear_601_16)"/>
<path d="M256.5 390V185L194.5 353.5L256.5 390Z" fill="url(#paint6_linear_601_16)"/>
</g>
<defs>
<filter id="filter0_d_601_16" x="0" y="0" width="422.5" height="390" filterUnits="userSpaceOnUse" color-interpolation-filters="sRGB">
<feFlood flood-opacity="0" result="BackgroundImageFix"/>
<feColorMatrix in="SourceAlpha" type="matrix" values="0 0 0 0 0 0 0 0 0 0 0 0 0 0 0 0 0 0 127 0" result="hardAlpha"/>
<feOffset dx="-8" dy="-4"/>
<feComposite in2="hardAlpha" operator="out"/>
<feColorMatrix type="matrix" values="0 0 0 0 0.137174 0 0 0 0 0.0493829 0 0 0 0 0 0 0 0 0.9 0"/>
<feBlend mode="normal" in2="BackgroundImageFix" result="effect1_dropShadow_601_16"/>
<feBlend mode="normal" in="SourceGraphic" in2="effect1_dropShadow_601_16" result="shape"/>
</filter>
<linearGradient id="paint0_linear_601_16" x1="-79.5" y1="23" x2="507.834" y2="293.13" gradientUnits="userSpaceOnUse">
<stop stop-color="#FF8D33"/>
<stop offset="0.515" stop-color="#FF8D33"/>
<stop offset="1" stop-color="#FFBA33"/>
</linearGradient>
<linearGradient id="paint1_linear_601_16" x1="-79.5" y1="23" x2="507.834" y2="293.13" gradientUnits="userSpaceOnUse">
<stop stop-color="#FF8D33"/>
<stop offset="0.515" stop-color="#FF8D33"/>
<stop offset="1" stop-color="#FFBA33"/>
</linearGradient>
<linearGradient id="paint2_linear_601_16" x1="-79.5" y1="23" x2="507.834" y2="293.13" gradientUnits="userSpaceOnUse">
<stop stop-color="#FF8D33"/>
<stop offset="0.515" stop-color="#FF8D33"/>
<stop offset="1" stop-color="#FFBA33"/>
</linearGradient>
<linearGradient id="paint3_linear_601_16" x1="-79.5" y1="23" x2="507.834" y2="293.13" gradientUnits="userSpaceOnUse">
<stop stop-color="#FF8D33"/>
<stop offset="0.515" stop-color="#FF8D33"/>
<stop offset="1" stop-color="#FFBA33"/>
</linearGradient>
<linearGradient id="paint4_linear_601_16" x1="-79.5" y1="23" x2="507.834" y2="293.13" gradientUnits="userSpaceOnUse">
<stop stop-color="#FF8D33"/>
<stop offset="0.515" stop-color="#FF8D33"/>
<stop offset="1" stop-color="#FFBA33"/>
</linearGradient>
<linearGradient id="paint5_linear_601_16" x1="-79.5" y1="23" x2="507.834" y2="293.13" gradientUnits="userSpaceOnUse">
<stop stop-color="#FF8D33"/>
<stop offset="0.515" stop-color="#FF8D33"/>
<stop offset="1" stop-color="#FFBA33"/>
</linearGradient>
<linearGradient id="paint6_linear_601_16" x1="-79.5" y1="23" x2="507.834" y2="293.13" gradientUnits="userSpaceOnUse">
<stop stop-color="#FF8D33"/>
<stop offset="0.515" stop-color="#FF8D33"/>
<stop offset="1" stop-color="#FFBA33"/>
</linearGradient>
</defs>
</svg>
